<svg xmlns="http://www.w3.org/2000/svg" viewBox="0 0 64 64" width="64" height="64"><circle cx="32" cy="32" r="28" fill="#FFFDF7" stroke="#D9604F" stroke-width="4"/><g transform="translate(9.5 8) scale(0.7)"><path d="M 3 50 Q 8 47 13 50 T 23 50 T 33 50 T 43 50 T 53 50 T 61 50" fill="none" stroke="#7FB8B3" stroke-width="2.4" stroke-linecap="round"/><path d="M 2 39 L 7 39 M 0 44 L 6 44" stroke="#7FB8B3" stroke-width="2.2" stroke-linecap="round"/><path d="M 8 31 C 12 34 16 33 20 30 C 27 27 41 27 48 31 C 55 35 53 46 45 48 C 37 50 22 50 16 46 C 11 43 9 38 8 31 Z" fill="#F6DD8E" stroke="#3A3541" stroke-width="3.4" stroke-linejoin="round"/><path d="M 21 36 C 26 33 34 33 38 36 C 35 41 26 42 21 36 Z" fill="#E9C873" stroke="#3A3541" stroke-width="2.5" stroke-linejoin="round"/><path d="M 41 13 C 40 8 45 6 46 10" fill="none" stroke="#3A3541" stroke-width="2.9" stroke-linecap="round"/><circle cx="42" cy="22" r="10" fill="#F6DD8E" stroke="#3A3541" stroke-width="3.4"/><path d="M 50 19.5 C 56 18.5 60.5 20.5 59.5 23.5 C 58.5 26 54 26 50.5 25 Z" fill="#EE8B3A" stroke="#3A3541" stroke-width="2.9" stroke-linejoin="round"/><circle cx="45" cy="20" r="2" fill="#3A3541"/></g></svg>