<svg xmlns="http://www.w3.org/2000/svg" viewBox="0 -16 557 92" width="1670" height="276"><path d="M 0 58 Q 8 55 16 58 T 32 58 T 48 58 T 64 58 T 80 58 T 96 58 T 112 58 T 128 58 T 144 58 T 160 58 T 176 58 T 192 58 T 208 58 T 224 58 T 240 58 T 256 58 T 272 58 T 288 58 T 304 58 T 320 58 T 336 58 T 352 58 T 368 58 T 384 58 T 400 58 T 416 58 T 432 58 T 448 58 T 464 58 T 480 58 T 496 58 T 512 58 T 528 58 T 544 58" fill="none" stroke="#7FB8B3" stroke-width="2" stroke-linecap="round" opacity=".7"/><svg x="0" y="6" width="58" height="58" viewBox="0 0 64 64"><g><path d="M 8 31 C 12 34 16 33 20 30 C 27 27 41 27 48 31 C 55 35 53 46 45 48 C 37 50 22 50 16 46 C 11 43 9 38 8 31 Z" fill="#F6DD8E" stroke="#3A3541" stroke-width="2.6" stroke-linejoin="round"/><path d="M 21 36 C 26 33 34 33 38 36 C 35 41 26 42 21 36 Z" fill="#E9C873" stroke="#3A3541" stroke-width="2" stroke-linejoin="round"/><circle cx="42" cy="22" r="10" fill="#F6DD8E" stroke="#3A3541" stroke-width="2.6"/><path d="M 41 13 C 40 8 45 6 46 10" fill="none" stroke="#3A3541" stroke-width="2.2" stroke-linecap="round"/><path d="M 50 19.5 C 56 18.5 60.5 20.5 59.5 23.5 C 58.5 26 54 26 50.5 25 Z" fill="#EE8B3A" stroke="#3A3541" stroke-width="2.2" stroke-linejoin="round"/><circle cx="45" cy="20" r="2" fill="#3A3541"/><circle cx="52" cy="44" r="8" fill="#6E9F6A" stroke="#FFFFFF" stroke-width="2.0"/><path d="M 48.4 44 L 51.2 46.8 L 56.0 40.8" fill="none" stroke="#FFFFFF" stroke-width="2.2" stroke-linecap="round" stroke-linejoin="round"/></g></svg><svg x="64" y="6" width="58" height="58" viewBox="0 0 64 64"><g><path d="M 8 31 C 12 34 16 33 20 30 C 27 27 41 27 48 31 C 55 35 53 46 45 48 C 37 50 22 50 16 46 C 11 43 9 38 8 31 Z" fill="#F6DD8E" stroke="#3A3541" stroke-width="2.6" stroke-linejoin="round"/><path d="M 21 36 C 26 33 34 33 38 36 C 35 41 26 42 21 36 Z" fill="#E9C873" stroke="#3A3541" stroke-width="2" stroke-linejoin="round"/><circle cx="42" cy="22" r="10" fill="#F6DD8E" stroke="#3A3541" stroke-width="2.6"/><path d="M 41 13 C 40 8 45 6 46 10" fill="none" stroke="#3A3541" stroke-width="2.2" stroke-linecap="round"/><path d="M 50 19.5 C 56 18.5 60.5 20.5 59.5 23.5 C 58.5 26 54 26 50.5 25 Z" fill="#EE8B3A" stroke="#3A3541" stroke-width="2.2" stroke-linejoin="round"/><circle cx="45" cy="20" r="2" fill="#3A3541"/><circle cx="52" cy="44" r="8" fill="#6E9F6A" stroke="#FFFFFF" stroke-width="2.0"/><path d="M 48.4 44 L 51.2 46.8 L 56.0 40.8" fill="none" stroke="#FFFFFF" stroke-width="2.2" stroke-linecap="round" stroke-linejoin="round"/></g></svg><svg x="128" y="6" width="58" height="58" viewBox="0 0 64 64"><g><path d="M 10 12 C 16 8 22 10 22 14 C 18 16 13 16 10 12 Z" fill="#B9AE9C" stroke="#3A3541" stroke-width="1.6" stroke-linejoin="round" transform="rotate(-20 16 12)"/><path d="M 9 13 L 4 17" stroke="#3A3541" stroke-width="1.6" stroke-linecap="round"/><path d="M 21 31 L 24 23 L 27 31 Z" fill="#B9AE9C" stroke="#3A3541" stroke-width="2" stroke-linejoin="round" transform="rotate(-12 24 31)"/><path d="M 28 31 L 31 22 L 34 31 Z" fill="#B9AE9C" stroke="#3A3541" stroke-width="2" stroke-linejoin="round" transform="rotate(4 31 31)"/><path d="M 34 31 L 37 24 L 40 31 Z" fill="#B9AE9C" stroke="#3A3541" stroke-width="2" stroke-linejoin="round" transform="rotate(14 37 31)"/><path d="M 11 31 L 14 24 L 17 31 Z" fill="#B9AE9C" stroke="#3A3541" stroke-width="2" stroke-linejoin="round" transform="rotate(-24 14 31)"/><path d="M 8 31 C 12 34 16 33 20 30 C 27 27 41 27 48 31 C 55 35 53 46 45 48 C 37 50 22 50 16 46 C 11 43 9 38 8 31 Z" fill="#B9AE9C" stroke="#3A3541" stroke-width="2.6" stroke-linejoin="round"/><path d="M 21 36 C 26 34 34 35 37 39 C 33 42 26 42 21 36 Z" fill="#A3977F" stroke="#3A3541" stroke-width="2" stroke-linejoin="round"/><path d="M 26 39 L 24 43 M 31 40 L 30 44" stroke="#3A3541" stroke-width="1.6" stroke-linecap="round"/><circle cx="42" cy="23" r="10" fill="#B9AE9C" stroke="#3A3541" stroke-width="2.6"/><path d="M 39 14 C 36 8 38 5 40 6" fill="none" stroke="#3A3541" stroke-width="2" stroke-linecap="round"/><path d="M 42 13 C 43 7 47 6 47 9" fill="none" stroke="#3A3541" stroke-width="2" stroke-linecap="round"/><path d="M 45 14 C 49 11 51 13 50 15" fill="none" stroke="#3A3541" stroke-width="2" stroke-linecap="round"/><path d="M 50 21.5 C 55 21 59 22.5 58.5 25 C 57.5 27 53 27 50.5 26 Z" fill="#D69A62" stroke="#3A3541" stroke-width="2.2" stroke-linejoin="round"/><circle cx="45" cy="21" r="2" fill="#3A3541"/><path d="M 42 16.5 L 47.5 18" stroke="#3A3541" stroke-width="1.8" stroke-linecap="round"/><circle cx="52" cy="44" r="8" fill="#E0A23A" stroke="#FFFFFF" stroke-width="2.0"/><path d="M 52 40.0 L 52 44.8" stroke="#FFFFFF" stroke-width="2.2" stroke-linecap="round"/><circle cx="52" cy="47.6" r="1.2" fill="#FFFFFF"/></g></svg><svg x="192" y="6" width="58" height="58" viewBox="0 0 64 64"><g><path d="M 8 31 C 12 34 16 33 20 30 C 27 27 41 27 48 31 C 55 35 53 46 45 48 C 37 50 22 50 16 46 C 11 43 9 38 8 31 Z" fill="#F6DD8E" stroke="#3A3541" stroke-width="2.6" stroke-linejoin="round"/><path d="M 21 36 C 26 33 34 33 38 36 C 35 41 26 42 21 36 Z" fill="#E9C873" stroke="#3A3541" stroke-width="2" stroke-linejoin="round"/><circle cx="42" cy="22" r="10" fill="#F6DD8E" stroke="#3A3541" stroke-width="2.6"/><path d="M 41 13 C 40 8 45 6 46 10" fill="none" stroke="#3A3541" stroke-width="2.2" stroke-linecap="round"/><path d="M 50 19.5 C 56 18.5 60.5 20.5 59.5 23.5 C 58.5 26 54 26 50.5 25 Z" fill="#EE8B3A" stroke="#3A3541" stroke-width="2.2" stroke-linejoin="round"/><circle cx="45" cy="20" r="2" fill="#3A3541"/><circle cx="52" cy="44" r="8" fill="#6E9F6A" stroke="#FFFFFF" stroke-width="2.0"/><path d="M 48.4 44 L 51.2 46.8 L 56.0 40.8" fill="none" stroke="#FFFFFF" stroke-width="2.2" stroke-linecap="round" stroke-linejoin="round"/></g></svg><svg x="256" y="6" width="58" height="58" viewBox="0 0 64 64"><g><path d="M 8 31 C 12 34 16 33 20 30 C 27 27 41 27 48 31 C 55 35 53 46 45 48 C 37 50 22 50 16 46 C 11 43 9 38 8 31 Z" fill="#F6DD8E" stroke="#3A3541" stroke-width="2.6" stroke-linejoin="round"/><path d="M 21 36 C 26 33 34 33 38 36 C 35 41 26 42 21 36 Z" fill="#E9C873" stroke="#3A3541" stroke-width="2" stroke-linejoin="round"/><circle cx="42" cy="22" r="10" fill="#F6DD8E" stroke="#3A3541" stroke-width="2.6"/><path d="M 41 13 C 40 8 45 6 46 10" fill="none" stroke="#3A3541" stroke-width="2.2" stroke-linecap="round"/><path d="M 50 19.5 C 56 18.5 60.5 20.5 59.5 23.5 C 58.5 26 54 26 50.5 25 Z" fill="#EE8B3A" stroke="#3A3541" stroke-width="2.2" stroke-linejoin="round"/><circle cx="45" cy="20" r="2" fill="#3A3541"/><circle cx="52" cy="44" r="8" fill="#6E9F6A" stroke="#FFFFFF" stroke-width="2.0"/><path d="M 48.4 44 L 51.2 46.8 L 56.0 40.8" fill="none" stroke="#FFFFFF" stroke-width="2.2" stroke-linecap="round" stroke-linejoin="round"/></g></svg><svg x="320" y="6" width="58" height="58" viewBox="0 0 64 64"><g><path d="M 8 31 C 12 34 16 33 20 30 C 27 27 41 27 48 31 C 55 35 53 46 45 48 C 37 50 22 50 16 46 C 11 43 9 38 8 31 Z" fill="#F6DD8E" stroke="#3A3541" stroke-width="2.6" stroke-linejoin="round"/><path d="M 21 36 C 26 33 34 33 38 36 C 35 41 26 42 21 36 Z" fill="#E9C873" stroke="#3A3541" stroke-width="2" stroke-linejoin="round"/><circle cx="42" cy="22" r="10" fill="#F6DD8E" stroke="#3A3541" stroke-width="2.6"/><path d="M 41 13 C 40 8 45 6 46 10" fill="none" stroke="#3A3541" stroke-width="2.2" stroke-linecap="round"/><path d="M 50 19.5 C 56 18.5 60.5 20.5 59.5 23.5 C 58.5 26 54 26 50.5 25 Z" fill="#EE8B3A" stroke="#3A3541" stroke-width="2.2" stroke-linejoin="round"/><circle cx="45" cy="20" r="2" fill="#3A3541"/><circle cx="52" cy="44" r="8" fill="#6E9F6A" stroke="#FFFFFF" stroke-width="2.0"/><path d="M 48.4 44 L 51.2 46.8 L 56.0 40.8" fill="none" stroke="#FFFFFF" stroke-width="2.2" stroke-linecap="round" stroke-linejoin="round"/></g></svg><svg x="384" y="6" width="58" height="58" viewBox="0 0 64 64"><g><path d="M 8 31 C 12 34 16 33 20 30 C 27 27 41 27 48 31 C 55 35 53 46 45 48 C 37 50 22 50 16 46 C 11 43 9 38 8 31 Z" fill="#F6DD8E" stroke="#3A3541" stroke-width="2.6" stroke-linejoin="round"/><path d="M 21 36 C 26 33 34 33 38 36 C 35 41 26 42 21 36 Z" fill="#E9C873" stroke="#3A3541" stroke-width="2" stroke-linejoin="round"/><circle cx="42" cy="22" r="10" fill="#F6DD8E" stroke="#3A3541" stroke-width="2.6"/><path d="M 41 13 C 40 8 45 6 46 10" fill="none" stroke="#3A3541" stroke-width="2.2" stroke-linecap="round"/><path d="M 50 19.5 C 56 18.5 60.5 20.5 59.5 23.5 C 58.5 26 54 26 50.5 25 Z" fill="#EE8B3A" stroke="#3A3541" stroke-width="2.2" stroke-linejoin="round"/><circle cx="45" cy="20" r="2" fill="#3A3541"/><circle cx="52" cy="44" r="8" fill="#6E9F6A" stroke="#FFFFFF" stroke-width="2.0"/><path d="M 48.4 44 L 51.2 46.8 L 56.0 40.8" fill="none" stroke="#FFFFFF" stroke-width="2.2" stroke-linecap="round" stroke-linejoin="round"/></g></svg><svg x="450" y="-14" width="100" height="100" viewBox="0 0 64 64"><g><path d="M 41 33 C 40 25 42 18 46 15 L 53.5 17 C 51 22 51 27 53 33 Z" fill="#F6DD8E" stroke="#3A3541" stroke-width="2.4" stroke-linejoin="round"/><path d="M 3 30 C 8 34 13 33 18 29 C 27 25 44 25 52 30 C 59 35 57 47 48 49 C 38 51 20 51 13 47 C 7 43 4 37 3 30 Z" fill="#F6DD8E" stroke="#3A3541" stroke-width="2.4" stroke-linejoin="round"/><path d="M 19 35 C 25 31 37 31 42 35 C 38 41 26 42 19 35 Z" fill="#E9C873" stroke="#3A3541" stroke-width="1.9" stroke-linejoin="round"/><circle cx="49" cy="14" r="7.5" fill="#F6DD8E" stroke="#3A3541" stroke-width="2.4"/><path d="M 55 12 C 59.5 11 63 12.5 62.5 15 C 62 17 58.5 17.5 55.5 16.5 Z" fill="#EE8B3A" stroke="#3A3541" stroke-width="2" stroke-linejoin="round"/><circle cx="51" cy="12" r="1.7" fill="#3A3541"/></g></svg></svg>